<svg id="Capa_1" data-name="Capa 1" xmlns="http://www.w3.org/2000/svg" viewBox="0 0 1280 201"><title>integcom-black</title><path d="M952.34,99q4.14-14.22,8.29-28.44c1.25-4.29,2.7-8.54,3.67-12.9.64-2.89,2.1-3.89,4.85-3.63a17.4,17.4,0,0,0,2.5-.07c9.66-.41,9.66-.41,9.66,9.08,0,32.49-.08,65,.09,97.46,0,4.15-1.07,5.39-5.25,5.3-10.49-.21-10.49,0-10.49-10.44q0-21.24,0-42.48c0-2.12.25-4.3-1.4-7.18-6,12.19-7.79,25-12.83,38.24l-12.5-39.89c-1.93,2.82-1.55,4.66-1.55,6.36-.05,16.66-.16,33.32,0,50,.05,4-.72,5.53-5.11,5.42-10.61-.25-10.62,0-10.62-10.83,0-32.16.07-64.31-.08-96.47,0-4.15.9-5.47,5.3-5,10.81,1.27,10.83,1,13.93,11.76,2.8,9.71,5.58,19.42,8.41,29.12.45,1.55,1.08,3,1.62,4.56Z"/><path d="M738.15,99.73c3.94-13.42,8-26,11.21-38.81,1.33-5.27,3.4-7.17,8.89-7.1,9,.11,9.06-.29,9.06,8.85,0,32.65-.09,65.3.09,98,0,4.26-1.26,5.29-5.33,5.21-10.41-.22-10.41,0-10.41-10.52q0-22,0-44a12.48,12.48,0,0,0-.9-5.56c-5.66,11.63-7.93,24.38-13.45,37.49-4.27-13.44-8.19-25.77-12.1-38.1-2.19,2-1.85,4-1.86,5.89,0,16.65-.14,33.31,0,50,0,3.71-.94,4.83-4.72,4.8-11-.09-11,.08-11-10.9,0-32.15.07-64.3-.09-96.45,0-4.25,1.07-5.38,5.36-4.88,10.81,1.25,10.82,1,13.93,11.75q4.23,14.55,8.49,29.09A9.68,9.68,0,0,0,738.15,99.73Z"/><path d="M435.3,114.13v19c0,9.49-.13,19,.07,28.48.07,3.31-1,4.21-4.24,4.23-11.47.1-11.47.22-11.47-11.43,0-31.81.08-63.62-.09-95.43,0-4.18.75-5.84,5.39-5.68,10,.34,10,.06,12.38,9.92q4,16.65,8,33.32a13.65,13.65,0,0,0,3.2,6.64c.11-2.43.22-4.11.25-5.78.27-13,.61-26,.72-39,0-3.12.8-4.31,4.18-4.34,10.73-.08,10.68-.23,10.76,10.69.25,31.64.44,63.29.92,94.92.07,4.69-.92,6.37-5.93,6.19-10.58-.39-10.45-.14-12.82-10.46-2.95-12.9-6.15-25.75-9.33-38.6C437.06,116,437.05,114.77,435.3,114.13Z"/><path d="M196.68,104.73c-.14-15.59.26-30.21.7-44.84.13-4.36,1-6.06,5.78-5.87,9.2.38,9.21.09,9.21,9.24,0,32.13-.07,64.27.09,96.41,0,4-.91,5.43-5.14,5.5-10.45.15-10.44.37-12.85-9.77q-4.42-18.6-8.9-37.18a25.76,25.76,0,0,0-1.4-3.33c-1.44,2.06-.89,3.91-.89,5.61-.06,13.49-.14,27,0,40.47,0,3.64-.82,5-4.78,4.63-10.92-1-10.94-.89-11-12,0-31.14,0-62.28-.23-93.42-.05-5.07,1.44-6.69,6.44-6.41,8.73.49,8.75.26,10.87,8.69q4.86,19.26,9.64,38.53A5.77,5.77,0,0,0,196.68,104.73Z"/><path d="M318.68,109.37q0-22,0-43.93c0-7.49,3.62-11.21,11.23-11.33,6.32-.1,12.65,0,19,0s10.41,4,10.41,10.47q0,44.93,0,89.86c0,6.47-4,10.44-10.4,10.46q-10,0-20,0c-6.07,0-10.21-4.08-10.22-10.12C318.67,139.66,318.69,124.51,318.68,109.37Zm23.9.2q0-17.49,0-35c0-2.27.52-4.67-3.26-4.75s-4,1.8-4,4.65q.09,35,0,69.93c0,2.58.16,4.54,3.6,4.56s3.67-1.82,3.65-4.46C342.54,132.88,342.58,121.22,342.58,109.57Z"/><path d="M1158.72,103.09c-.11-9.06.15-24,.88-39,.31-6.6,3.19-9.71,9.84-9.91,6.32-.18,12.65-.11,19-.06,7.14,0,10.89,3.84,10.89,11q0,44.45,0,88.91c0,7.1-3.71,10.81-10.87,11-6.48.2-12.94.79-19.44-.05-6.22-.81-9-3.69-9.42-10C1158.58,139.66,1158.8,124.34,1158.72,103.09Zm24.06,6.29c0-11.5,0-23,0-34.49,0-2.39.72-5-3.44-5-3.81,0-3.84,2.11-3.84,4.82q0,34.74,0,69.48c0,2.75.11,4.86,3.86,4.85,4.11,0,3.41-2.72,3.42-5.12C1182.8,132.38,1182.78,120.88,1182.78,109.38Z"/><path d="M699.06,109.8c.33,14.82-.19,29.64-.74,44.45-.27,7.32-2.87,9.76-10.28,10.77a74.42,74.42,0,0,1-19.89-.08c-6.22-.83-9.13-3.35-9.44-9.48a888.09,888.09,0,0,1,0-91.87c.31-6.13,3.29-8.73,9.45-9.46a82.29,82.29,0,0,1,19.9-.07c7.28.9,10,3.45,10.26,10.78C698.88,79.82,699.39,94.8,699.06,109.8Zm-24.22-.58q0,17.44,0,34.9c0,2.64-.1,4.94,3.76,4.88,3.48-.06,3.61-2,3.6-4.55q0-35.16,0-70.31c0-2.72-.47-4.28-3.8-4.3-3.54,0-3.59,2-3.58,4.47C674.86,86,674.84,97.58,674.84,109.22Z"/><path d="M270.66,109.56c0-17.16.11-34.32-.09-51.47,0-3.75,1-4.86,4.76-4.79,8.66.14,17.31.11,25.95.87,5.82.5,8.58,3.37,9.11,9.15,1.18,12.82.45,25.67-.39,38.43-.32,4.81-.68,9.12,0,14.1,2.17,15.34,1,31-.08,46.37-.43,6.14-8.37,1.89-12.71,3.28-3.09,1-2.51-2.21-2.52-4,0-13.16-.11-26.32,0-39.47,0-3.53-.37-5.54-4.74-5.28-3.28.19-3.77,1.45-3.75,4.23.1,13.16-.1,26.32.13,39.47.08,4-.74,5.53-5.11,5.42-10.61-.25-10.62,0-10.62-10.82ZM294.47,85.8c0-4-.12-8,0-11.93.12-3-1.08-4.05-4.08-4-2.72,0-3.91.85-3.87,3.7q.15,11.93,0,23.85c0,3,1.54,3.53,4.07,3.57,2.72,0,4-.94,3.87-3.76C294.38,93.42,294.46,89.61,294.47,85.8Z"/><path d="M802.66,109.38c0-17.15.08-34.3-.06-51.45,0-3.35.76-4.79,4.39-4.6,8.64.43,17.3.43,25.94.84,5.8.28,9.37,4.23,9.37,9.9q0,45.47,0,90.91c0,6-3.8,9.81-9.75,10-8.49.24-17,.39-25.45.83-3.49.18-4.55-.94-4.51-4.46C802.75,144,802.66,126.7,802.66,109.38Zm15.73-.37c0,12,.05,24,0,36,0,2.64.66,4,3.6,4s4.15-.94,4.14-4q-.12-35.46,0-70.93c0-2.79-.64-4.22-3.89-4.21s-3.89,1.35-3.86,4.21C818.45,85.7,818.39,97.36,818.39,109Z"/><path d="M1058.67,130.58c-2.85,6.49-3.67,13-5.32,19.34a127.91,127.91,0,0,0-2.87,12.59c-.41,2.62-1.6,3.27-4,3.25-15.72-.18-13.2.7-10-12.06,3.14-12.53,6.33-25,9.75-37.5a23.26,23.26,0,0,0,0-12.63c-3.92-14.54-7.62-29.15-11.34-43.75-1.43-5.62-.92-6.22,4.86-6.41,1.66,0,3.33,0,5,.05,3.43,0,5.29,1.41,6,5.16,1.57,8.79,3.68,17.49,5.56,26.23.21,1,.14,2,1.85,2.57,2.85-6.46,3.51-13.56,5.44-20.28.27-1,.43-1.93.66-2.9,2.5-10.73,2.5-10.63,13.8-10.43,3.84.07,4.85,1.08,3.78,5-4.16,15.35-7.91,30.8-12,46.17a16.49,16.49,0,0,0,0,8.76c4.05,15.37,7.86,30.81,12,46.16,1.12,4.16.27,6.07-4.21,5.79-.83-.06-1.67,0-2.5,0-8.29,0-8.44-.06-10.14-8-1.59-7.45-3-14.94-4.37-22.43A10.17,10.17,0,0,0,1058.67,130.58Z"/><path d="M582.31,109.68c0,11.83.11,23.65-.07,35.47-.06,3.4,1.18,4.12,4.31,4.17,3.35.06,4.21-1.12,4.17-4.31-.15-13.15.06-26.31-.13-39.47-.05-3.58,1-4.5,4.54-4.21,11.21.94,11.27.81,11.29,12.31q0,20-.08,40c-.06,8-3.11,10.95-11.21,11.31-6.31.28-12.6.9-18.94.07s-9.3-3.57-9.6-9.82c-1.49-30.47-1.4-60.93.07-91.38.31-6.55,3.07-9.32,9.56-9.62,7-.33,14-.45,21-.79,2.93-.14,4.19.85,4.23,4a34.48,34.48,0,0,0,1.25,9.34c1,3.31-.7,3.2-2.9,3.18-4.33,0-8.68.2-13-.07-3.44-.21-4.61.84-4.54,4.42C582.44,86,582.31,97.86,582.31,109.68Z"/><path d="M989.69,109.19c0-16.82.11-33.65-.09-50.47-.05-4,.81-5.63,5.15-5.43,8.65.42,17.31-.12,26,.62,2.95.25,4.06,1.54,4.53,4.1,2.18,11.84,2.19,11.84-10.18,11.84-8.86,0-8.86,0-8.86,9,0,6.16.15,12.33-.05,18.49-.1,3.1,1,4.13,4,3.93s6.32-.05,9.49-.05c.83,0,1.9-.31,2.46.09,4.61,3.32,1.07,8.12,2,12.15.49,2-.17,3.53-2.83,3.43-3.83-.14-7.66.06-11.49,0-2.36-.07-3.73.41-3.69,3.23q.18,13,0,26c0,2.84,1.38,3.27,3.71,3.22,4.5-.09,9,.09,13.49-.06,2.51-.08,3.33,1,2.93,3.27-.64,3.76-1.41,7.49-2,11.25-.4,2.55-2.31,2-3.85,2-8.83.06-17.66-.13-26.48.11-3.67.1-4.38-1.33-4.36-4.65C989.76,143.84,989.69,126.52,989.69,109.19Z"/><path d="M141.54,54.12c4.5,0,9,0,13.49,0,1.7,0,3.51-.1,3.86,2.13.61,3.93,1.1,7.88,1.63,11.82.32,2.35-1.5,1.73-2.64,1.75-4.5.07-9,.16-13.49,0-2.81-.1-4.24.48-4.15,3.77.21,8,.17,16,0,24-.06,2.83.89,3.84,3.71,3.69,3.65-.19,7.33.1,11-.08,2.67-.13,3.3.93,3.4,3.46.5,12.22.58,12.18-11.59,12.24-7.22,0-6.41-.86-6.46,6.33,0,7,.27,14-.1,21-.23,4.34,1.34,5.5,5.37,5.12,3.3-.31,6.65,0,10,0,3.87-.08,5.71,1.37,4.39,5.43a6.54,6.54,0,0,0-.3,1c-1.94,10.06-1.94,10.06-12.14,10.08-6.66,0-13.32-.07-20,0-2.57,0-3.93-.44-3.92-3.51q.14-52.69,0-105.41c0-3.1,1.4-3.54,4-3.47,4.66.13,9.32,0,14,0Z"/><path d="M851.66,109.32c0-17.16.09-34.33-.07-51.49,0-3.51,1-4.64,4.52-4.47,9,.44,18,.53,27,.77,1.45,0,3.24-.31,3.6,1.75.71,4.08,1.32,8.18,1.87,12.28.32,2.37-1.63,1.63-2.73,1.65-4.49.09-9,.18-13.49,0-2.9-.12-4.18.6-4.1,3.83.21,8,.18,16,0,24-.06,2.94,1.07,3.86,3.8,3.6a25.05,25.05,0,0,1,4.5,0c3.1.27,7.69-1.52,9,.79,2.11,3.78.7,8.74.65,13.2,0,2-1.8,1.59-3,1.61-3.83,0-7.67.16-11.49,0-2.68-.12-3.43,1-3.39,3.5q.16,12.75,0,25.5c0,2.59.82,3.56,3.44,3.45,3.83-.15,7.67-.07,11.5,0,1.31,0,3.19-.13,3.83.62,3.19,3.79-.61,7.8-.06,11.82.25,1.8-.92,3.24-3.4,3.27-9.49.12-19,.35-28.48.77-3.69.17-3.46-2-3.45-4.44Q851.7,135.31,851.66,109.32Z"/><path d="M541.05,54.13c4.5,0,9,.09,13.49,0,2.29-.06,3.36,1,3.68,3.09,0,.16,0,.33,0,.5,1.34,11.93,4.91,12.07-10.23,12.16-8.74,0-8.74,0-8.73,8.57,0,6,.27,12-.1,18-.25,4.13,1.33,5.22,5.1,4.86,2.81-.27,5.66-.05,8.49-.05.83,0,1.93-.31,2.46.09,4.44,3.39,1,8.15,2,12.2.48,2.06-.24,3.48-2.86,3.38-3.83-.15-7.67.06-11.49,0-2.39-.08-3.67.46-3.63,3.26.14,8.65.11,17.31,0,26,0,2.34.78,3.26,3.17,3.2,4.32-.11,8.66.08,13,0,3.39,0,4.45,1.6,3.83,4.7-.16.81-.45,1.59-.62,2.4-1.93,9.46-2.24,9.64-11.83,9.17-6.31-.3-12.64-.55-19-.5-3.13,0-4.34-.81-4.33-4.18q.09-50.7-.18-101.41c0-4.55,1.6-5.8,5.74-5.57,4,.22,8,.05,12,.05Z"/><path d="M80.7,109.25q0-22.22,0-44.43c0-6.57,3.79-10.5,10.36-10.67,6.82-.18,13.64-.09,20.46-.29,2.94-.09,4,1.4,4.62,4,2.7,12,2.73,12-9.42,12-9.48,0-9.48,0-9.48,9.34,0,21.8.09,43.61-.09,65.41,0,3.77,1.08,5,4.79,4.7,4.13-.3,8.32.08,12.47-.11,2.78-.13,3.48.89,3,3.48-.56,2.92-.81,5.9-1.26,8.85s-2.7,4.12-5.37,4.07c-7.65-.13-15.31-.29-22.94-.79-3.55-.23-7.11-5.66-7.12-10.11Q80.67,132,80.7,109.25Z"/><path d="M516.85,69.46c-.89.2-1.2.31-1.52.34-3.79.34-8.78-1.59-11.08.82-2.68,2.81-.88,7.93-.9,12-.09,25.83-.13,51.67,0,77.5,0,4.1-.62,5.83-5.34,5.72-12.38-.3-12.39-.05-12.39-12.57,0-26.16-.08-52.33.08-78.49,0-3.87-.93-5.16-4.95-5-8.92.24-8.21.07-7.62-8.68.43-6.22,3.05-7.11,8.29-7.31,9.83-.39,19.66-.2,29.48-.42,3.09-.07,4.46.71,4.5,4.14C515.48,61.43,516.33,65.37,516.85,69.46Z"/><path d="M233.66,117.8c0-14.32-.12-28.65.08-43,.06-3.79-.82-5.18-4.91-5.08-9.71.23-9.72,0-7.79-9.77,1.33-6.74,1.33-6.67,8.38-6.48,9.66.27,19.31.58,29,.54,3.48,0,4.95,1.36,4.87,4.55-.09,3.52,2.66,7.55.77,10.17s-6.46.95-9.82,1c-3.13.07-2.92,1.9-2.91,4q0,19,0,38c0,16.49-.08,33,.06,49.46,0,3.31-.68,4.63-4.34,4.65-13.36.08-13.36.23-13.36-13Z"/><path d="M615.63,108.53c0-15.15,0-30.3,0-45.45,0-5.14,3-8.52,8.22-8.77,7.64-.37,15.31-.1,23-.2,2.11,0,3,1.06,3.35,2.88,0,.16,0,.33.06.49,2.65,12.37,2.65,12.37-10,12.37-8.91,0-8.91,0-8.91,8.89,0,21.48.2,43-.15,64.45-.09,5.31,1.6,6.67,6.42,6.11,3-.35,6,0,9-.07,3.75-.09,5.33,1.21,4.89,5.37-1.08,10.13-.89,10.08-11,10.53a113.46,113.46,0,0,1-16-.26c-5.59-.53-8.56-3.78-8.93-9.4A393.11,393.11,0,0,1,615.63,108.53Z"/><path d="M1116.56,108.77c0-15.17,0-30.33,0-45.5,0-5.72,3.09-9,8.8-9.09,7.16-.14,14.33.1,21.49-.11,3.11-.1,4.16,1.35,4.38,4,.08,1,0,2,.13,3,.78,8.76.78,8.76-8.38,8.76-10.68,0-10.68,0-10.68,10.64,0,21.33.08,42.66-.08,64,0,3.61.77,5.19,4.66,4.82a96.58,96.58,0,0,1,10.49,0,10,10,0,0,1,3.43.46c2.41,1,1.9,3.35,1.14,4.68-1.9,3.33,2,9.67-4.06,10.28-8.08.82-16.31.33-24.48.14-3.89-.1-7.73-5.33-7.74-10.08q0-23,0-46Z"/><path d="M1090.66,109.62c0-17.31.07-34.61-.05-51.91,0-3.09.66-4.35,4.08-4.41,12.62-.21,12.62-.34,12.62,12.31,0,31.44-.08,62.88.08,94.33,0,4.32-.78,6.07-5.62,5.92-11.1-.35-11.11-.08-11.11-11.32Z"/><path d="M411.3,109.53c0,17.3-.06,34.61.06,51.91,0,3.11-.68,4.32-4.09,4.37-12.61.18-12.61.31-12.61-12.27,0-31.45.08-62.89-.08-94.34,0-4.31.74-6.11,5.62-6,11.1.37,11.1.09,11.1,11.36Z"/><path d="M1011.18,35.26c3.5-.25,5.13.63,3,4.15-1.89,3.12-3.57,6.37-5.55,9.42-.91,1.4-2.46,2.54-4.25,1.62s-.77-2.69-.37-4c.88-2.83,2.14-5.55,3-8.39C1007.71,35.77,1009,34.75,1011.18,35.26Z"/></svg>