<?xml version="1.0" encoding="utf-8"?>
<!-- Generator: Adobe Illustrator 23.0.2, SVG Export Plug-In . SVG Version: 6.00 Build 0)  -->
<svg version="1.1" id="Capa_1" xmlns="http://www.w3.org/2000/svg" xmlns:xlink="http://www.w3.org/1999/xlink" x="0px" y="0px"
	 viewBox="0 0 171.2 30.6" style="enable-background:new 0 0 171.2 30.6;" xml:space="preserve">
<style type="text/css">
	.st0{fill:#2E3191;}
	.st1{fill:#E9F5F7;}
	.st2{fill:#D5EDF0;}
	.st3{fill:#BE1E2D;}
</style>
<polygon class="st0" points="46.1,11.5 46.1,1.2 52.3,1.2 52.3,2.5 47.4,2.5 47.4,5.5 51.2,5.5 51.2,6.7 47.4,6.7 47.4,11.5 "/>
<path class="st0" d="M65.1,11.5h1.5L62.9,1.2h-1.5l-3.7,10.3h1.5l1-2.8h3.9L65.1,11.5z M60.6,7.4l1.5-4.3l1.5,4.3H60.6z"/>
<path class="st0" d="M73.7,11.5V1.2H77c0.7,0,1.3,0.1,1.9,0.3c0.5,0.2,0.9,0.6,1.2,1c0.3,0.5,0.4,1.1,0.4,1.8S80.3,5.6,80,6.1
	c-0.3,0.5-0.7,0.8-1.3,1.1l2.3,4.3h-1.7l-2.1-4l0,0l0,0h-2.1v4H73.7z M75.2,6.2H77c0.7,0,1.2-0.2,1.6-0.5s0.5-0.8,0.5-1.4
	s-0.2-1.1-0.5-1.4c-0.4-0.3-0.9-0.5-1.6-0.5h-1.8V6.2z"/>
<polygon class="st0" points="98.3,11.5 97,1.2 95.8,1.2 93.1,6.3 90.4,1.2 89.2,1.2 87.8,11.5 89.3,11.5 90.3,3.7 93.1,9 95.9,3.7 
	96.9,11.5 "/>
<path class="st0" d="M112.4,11.5h1.5l-3.7-10.3h-1.5L105,11.5h1.5l1-2.8h3.9L112.4,11.5z M107.9,7.4l1.5-4.3l1.5,4.3H107.9z"/>
<path class="st0" d="M125.4,11.7c-1,0-1.9-0.2-2.7-0.7c-0.8-0.4-1.4-1.1-1.8-1.9c-0.4-0.8-0.7-1.7-0.7-2.8s0.2-2,0.7-2.8
	s1.1-1.4,1.9-1.9c0.8-0.4,1.7-0.7,2.7-0.7c0.5,0,1,0.1,1.5,0.2c0.5,0.1,0.9,0.3,1.2,0.4L128,2.9c-0.4-0.2-0.8-0.3-1.2-0.4
	c-0.4-0.1-0.9-0.2-1.4-0.2c-0.8,0-1.5,0.2-2,0.5c-0.5,0.4-1,0.9-1.2,1.5c-0.3,0.6-0.4,1.3-0.4,2.1c0,0.8,0.1,1.4,0.4,2.1
	c0.3,0.6,0.7,1.1,1.2,1.5s1.2,0.5,2,0.5c0.5,0,1-0.1,1.4-0.2s0.8-0.3,1.2-0.5l0.1,1.3c-0.4,0.2-0.8,0.3-1.2,0.4
	C126.5,11.6,126,11.7,125.4,11.7"/>
<rect x="135.7" y="1.2" class="st0" width="1.4" height="10.3"/>
<path class="st0" d="M151.6,11.5h1.5l-3.7-10.3h-1.5l-3.7,10.3h1.5l1-2.8h3.9L151.6,11.5z M147.1,7.4l1.5-4.3l1.5,4.3H147.1z"/>
<rect x="8" y="2.1" class="st1" width="10.6" height="26.4"/>
<rect x="0.1" y="10" class="st2" width="26.4" height="10.6"/>
<path class="st0" d="M10.1,19.9c-0.4-2.4,0.8-4.9,2.9-6c2.3-1.2,5.1-0.8,6.8,1.1c0.5,0.5,0.5,0.8-0.2,1.2c-2.7,1.6-5.5,3.2-8.2,4.8
	c-0.5,0.3-0.8,0.2-1.1-0.4C10.2,20.3,10.2,20.1,10.1,19.9"/>
<path class="st0" d="M16.4,24.4c-1.7,0.3-3.4-0.3-4.8-1.7c-0.5-0.5-0.5-0.9,0.2-1.2c2.8-1.6,5.6-3.3,8.4-4.9c0.5-0.3,0.8-0.1,1,0.4
	C22.2,20.3,20.1,23.8,16.4,24.4"/>
<path class="st3" d="M6.8,8.3c3.1-0.6,5.8,1.5,6.1,4.3c0,0.3-0.1,0.4-0.3,0.6c-0.7,0.5-1.3,0.4-2,0.2c-2.1-0.6-4.2-1.1-6.4-1.6
	c-0.8-0.2-0.9-0.5-0.5-1.3C4.5,9.4,5.7,8.6,6.8,8.3"/>
<path class="st3" d="M11.1,14.4c-0.2,0.2-0.3,0.4-0.4,0.5c-0.6,0.8-1.1,1.7-1.2,2.8c0,0.3-0.2,0.4-0.5,0.4c-3.1,0.6-6-1.9-5.9-5
	c0-0.5,0.3-0.7,0.9-0.6c0.8,0.2,1.7,0.4,2.5,0.6c1.4,0.4,2.8,0.7,4.3,1.1C10.8,14.3,10.9,14.3,11.1,14.4"/>
<path class="st3" d="M17.3,10.2c0-0.8-0.7-1.5-1.5-1.5c-0.8,0-1.5,0.7-1.5,1.5s0.7,1.5,1.5,1.5C16.6,11.7,17.3,11,17.3,10.2"/>
<path class="st0" d="M18.2,6.3c0-0.5-0.4-0.9-0.9-0.9s-0.9,0.4-0.9,0.9s0.4,0.9,0.9,0.9C17.8,7.1,18.2,6.7,18.2,6.3"/>
<path class="st3" d="M9.4,22.5c0-0.6-0.5-1.1-1.1-1.1s-1,0.6-1,1.1c0,0.6,0.5,1.1,1.1,1.1S9.4,23.1,9.4,22.5"/>
<path class="st0" d="M8.2,24.1c0-0.7-0.6-1.3-1.3-1.3s-1.3,0.6-1.3,1.3c0,0.7,0.6,1.3,1.3,1.3S8.2,24.8,8.2,24.1"/>
<polygon class="st0" points="29,16.1 33.4,16.1 36.4,25.7 39.3,16.1 43.5,16.1 38.5,29.4 34.1,29.4 "/>
<path class="st0" d="M45,16.1h3.7v2.5H45V16.1z M45,19.8h3.7v9.7H45V19.8z"/>
<path class="st0" d="M55.6,16.1v3.7h2v2.7h-2v3.4c0,0.4,0,0.7,0.1,0.8c0.1,0.2,0.3,0.3,0.6,0.3s0.7-0.1,1.1-0.2l0.3,2.6
	c-0.9,0.2-1.8,0.3-2.6,0.3c-0.9,0-1.6-0.1-2-0.4c-0.4-0.2-0.8-0.6-1-1.1c-0.2-0.5-0.3-1.3-0.3-2.3v-3.4h-1.4v-2.7h1.4V18L55.6,16.1z
	"/>
<path class="st0" d="M62.8,22.9l-3.5-0.4c0.1-0.6,0.3-1.1,0.6-1.5c0.3-0.4,0.6-0.7,1.1-0.9c0.3-0.2,0.8-0.3,1.4-0.4
	c0.6-0.1,1.2-0.2,1.9-0.2c1.1,0,2,0.1,2.7,0.2c0.7,0.1,1.2,0.4,1.7,0.8c0.3,0.3,0.6,0.7,0.7,1.2c0.2,0.5,0.3,1,0.3,1.4v4.3
	c0,0.5,0,0.8,0.1,1.1c0.1,0.3,0.2,0.6,0.4,1h-3.5c-0.1-0.2-0.2-0.4-0.3-0.6c0-0.1-0.1-0.3-0.1-0.6c-0.5,0.5-1,0.8-1.4,1
	c-0.7,0.3-1.4,0.4-2.3,0.4c-1.2,0-2-0.3-2.6-0.8s-0.9-1.2-0.9-2c0-0.7,0.2-1.3,0.6-1.8c0.4-0.5,1.2-0.8,2.4-1.1
	c1.4-0.3,2.3-0.5,2.7-0.6s0.8-0.3,1.3-0.4c0-0.5-0.1-0.8-0.3-1c-0.2-0.2-0.5-0.3-1-0.3c-0.6,0-1.1,0.1-1.4,0.3
	C63.1,22.2,62.9,22.5,62.8,22.9 M66,24.8c-0.5,0.2-1,0.3-1.6,0.5c-0.8,0.2-1.2,0.4-1.4,0.6c-0.2,0.2-0.3,0.4-0.3,0.7
	c0,0.3,0.1,0.5,0.3,0.7c0.2,0.2,0.5,0.3,0.9,0.3c0.4,0,0.8-0.1,1.2-0.3c0.4-0.2,0.6-0.4,0.8-0.7c0.1-0.3,0.2-0.7,0.2-1.1L66,24.8
	L66,24.8z"/>
<rect x="71.9" y="16.1" class="st0" width="3.7" height="13.3"/>
<path class="st0" d="M78.1,16.1h3.7v2.5h-3.7V16.1z M78.1,19.8h3.7v9.7h-3.7V19.8z"/>
<path class="st0" d="M94.3,16.1v13.3h-3.5V28c-0.5,0.6-0.9,1-1.3,1.2c-0.5,0.3-1.1,0.4-1.8,0.4c-1.3,0-2.3-0.5-3-1.5s-1-2.2-1-3.6
	c0-1.6,0.4-2.8,1.2-3.7c0.8-0.8,1.7-1.3,2.9-1.3c0.6,0,1.1,0.1,1.6,0.3c0.5,0.2,0.9,0.5,1.3,0.9v-4.6C90.7,16.1,94.3,16.1,94.3,16.1
	z M90.6,24.6c0-0.8-0.2-1.3-0.5-1.7c-0.3-0.4-0.7-0.6-1.2-0.6c-0.4,0-0.8,0.2-1.1,0.5c-0.3,0.4-0.4,1-0.4,1.8s0.1,1.4,0.4,1.7
	c0.3,0.4,0.7,0.6,1.1,0.6c0.5,0,0.9-0.2,1.2-0.6C90.4,26,90.6,25.4,90.6,24.6"/>
<path class="st0" d="M99.9,22.9l-3.5-0.4c0.1-0.6,0.3-1.1,0.6-1.5c0.3-0.4,0.6-0.7,1.1-0.9c0.3-0.2,0.8-0.3,1.4-0.4
	c0.6-0.1,1.2-0.2,1.9-0.2c1.1,0,2,0.1,2.7,0.2c0.7,0.1,1.2,0.4,1.7,0.8c0.3,0.3,0.6,0.7,0.7,1.2c0.2,0.5,0.3,1,0.3,1.4v4.3
	c0,0.5,0,0.8,0.1,1.1c0.1,0.3,0.2,0.6,0.4,1h-3.5c-0.1-0.2-0.2-0.4-0.3-0.6c0-0.1-0.1-0.3-0.1-0.6c-0.5,0.5-1,0.8-1.4,1
	c-0.7,0.3-1.4,0.4-2.3,0.4c-1.2,0-2-0.3-2.6-0.8c-0.6-0.5-0.9-1.2-0.9-2c0-0.7,0.2-1.3,0.6-1.8c0.4-0.5,1.2-0.8,2.4-1.1
	c1.4-0.3,2.3-0.5,2.7-0.6c0.4-0.1,0.8-0.3,1.3-0.4c0-0.5-0.1-0.8-0.3-1c-0.2-0.2-0.5-0.3-1-0.3c-0.6,0-1.1,0.1-1.4,0.3
	C100.3,22.2,100.1,22.5,99.9,22.9 M103.1,24.8c-0.5,0.2-1,0.3-1.6,0.5c-0.8,0.2-1.2,0.4-1.4,0.6c-0.2,0.2-0.3,0.4-0.3,0.7
	c0,0.3,0.1,0.5,0.3,0.7c0.2,0.2,0.5,0.3,0.9,0.3c0.4,0,0.8-0.1,1.2-0.3s0.6-0.4,0.8-0.7c0.1-0.3,0.2-0.7,0.2-1.1L103.1,24.8
	L103.1,24.8z"/>
<path class="st0" d="M119.1,16.1v13.3h-3.5V28c-0.5,0.6-0.9,1-1.3,1.2c-0.5,0.3-1.1,0.4-1.8,0.4c-1.3,0-2.3-0.5-3-1.5s-1-2.2-1-3.6
	c0-1.6,0.4-2.8,1.2-3.7c0.8-0.8,1.7-1.3,2.9-1.3c0.6,0,1.1,0.1,1.6,0.3c0.5,0.2,0.9,0.5,1.3,0.9v-4.6
	C115.5,16.1,119.1,16.1,119.1,16.1z M115.4,24.6c0-0.8-0.2-1.3-0.5-1.7c-0.3-0.4-0.7-0.6-1.2-0.6c-0.4,0-0.8,0.2-1.1,0.5
	c-0.3,0.4-0.4,1-0.4,1.8s0.1,1.4,0.4,1.7c0.3,0.4,0.7,0.6,1.1,0.6c0.5,0,0.9-0.2,1.2-0.6C115.3,26,115.4,25.4,115.4,24.6"/>
<path class="st0" d="M127.8,16.1h6.9c1.5,0,2.6,0.4,3.4,1.1c0.7,0.7,1.1,1.7,1.1,3c0,1.3-0.4,2.4-1.2,3.2c-0.8,0.8-2,1.1-3.7,1.1
	H132v4.9h-4.1L127.8,16.1L127.8,16.1z M132,21.8h1c0.8,0,1.4-0.1,1.7-0.4c0.3-0.3,0.5-0.6,0.5-1.1c0-0.4-0.1-0.8-0.4-1.1
	c-0.3-0.3-0.8-0.4-1.6-0.4H132V21.8z"/>
<rect x="141.2" y="16.1" class="st0" width="3.7" height="13.3"/>
<path class="st0" d="M157.5,29.4H154v-1.6c-0.5,0.6-1,1.1-1.6,1.4c-0.5,0.3-1.2,0.4-1.9,0.4c-1,0-1.8-0.3-2.4-0.9
	c-0.6-0.6-0.9-1.5-0.9-2.8v-6.2h3.7V25c0,0.6,0.1,1,0.3,1.3c0.2,0.3,0.5,0.4,0.9,0.4c0.4,0,0.8-0.2,1.1-0.5c0.3-0.3,0.4-0.9,0.4-1.8
	v-4.6h3.7v9.6H157.5z"/>
<path class="st0" d="M159,26.7l3.7-0.3c0.2,0.4,0.4,0.7,0.6,0.9c0.3,0.2,0.6,0.3,1.1,0.3c0.5,0,0.9-0.1,1.2-0.3
	c0.2-0.2,0.3-0.4,0.3-0.6c0-0.3-0.1-0.5-0.4-0.6c-0.2-0.1-0.7-0.2-1.6-0.4c-1.3-0.2-2.2-0.4-2.7-0.6c-0.5-0.2-0.9-0.5-1.3-1
	c-0.3-0.5-0.5-1-0.5-1.6c0-0.6,0.2-1.2,0.6-1.6c0.4-0.5,0.9-0.8,1.5-1s1.5-0.3,2.6-0.3c1.2,0,2,0.1,2.6,0.3c0.5,0.2,1,0.4,1.4,0.8
	c0.4,0.4,0.7,0.9,0.9,1.5l-3.5,0.3c-0.1-0.3-0.2-0.5-0.5-0.7c-0.3-0.2-0.6-0.3-1.1-0.3c-0.4,0-0.7,0.1-0.9,0.2
	c-0.2,0.1-0.3,0.3-0.3,0.5c0,0.2,0.1,0.4,0.4,0.5c0.2,0.1,0.8,0.2,1.6,0.3c1.2,0.1,2.1,0.3,2.7,0.6c0.6,0.2,1.1,0.6,1.4,1.1
	c0.3,0.5,0.5,1,0.5,1.5c0,0.6-0.2,1.1-0.5,1.6c-0.3,0.5-0.9,0.9-1.6,1.3c-0.7,0.3-1.7,0.5-3,0.5c-1.8,0-3-0.3-3.8-0.8
	C159.7,28.4,159.3,27.7,159,26.7"/>
</svg>
