<?xml version="1.0" encoding="utf-8"?>
<!-- Generator: Adobe Illustrator 23.0.2, SVG Export Plug-In . SVG Version: 6.00 Build 0)  -->
<svg version="1.1" id="Capa_1" xmlns="http://www.w3.org/2000/svg" xmlns:xlink="http://www.w3.org/1999/xlink" x="0px" y="0px"
	 viewBox="0 0 171.2 30.6" style="enable-background:new 0 0 171.2 30.6;" xml:space="preserve">
<style type="text/css">
	.st0{fill:#FFFFFF;}
</style>
<g>
	<path class="st0" d="M132.3,13.7c0.4-1.4,0.8-2.8,1.2-4.2c0.2-0.6,0.4-1.3,0.5-1.9c0.1-0.4,0.3-0.6,0.7-0.5c0.1,0,0.2,0,0.4,0
		c1.4-0.1,1.4-0.1,1.4,1.4c0,4.9,0,9.7,0,14.6c0,0.6-0.2,0.8-0.8,0.8c-1.6,0-1.6,0-1.6-1.6c0-2.1,0-4.2,0-6.3c0-0.3,0-0.6-0.2-1.1
		c-0.9,1.8-1.2,3.7-1.9,5.7c-0.6-2.1-1.2-3.9-1.9-6c-0.3,0.4-0.2,0.7-0.2,1c0,2.5,0,5,0,7.5c0,0.6-0.1,0.8-0.8,0.8
		c-1.6,0-1.6,0-1.6-1.6c0-4.8,0-9.6,0-14.4c0-0.6,0.1-0.8,0.8-0.7c1.6,0.2,1.6,0.2,2.1,1.8c0.4,1.5,0.8,2.9,1.3,4.4
		c0.1,0.2,0.2,0.5,0.2,0.7C132.1,13.7,132.2,13.7,132.3,13.7z"/>
	<path class="st0" d="M100.3,13.8c0.6-2,1.2-3.9,1.7-5.8c0.2-0.8,0.5-1.1,1.3-1.1c1.4,0,1.4,0,1.4,1.3c0,4.9,0,9.8,0,14.6
		c0,0.6-0.2,0.8-0.8,0.8c-1.6,0-1.6,0-1.6-1.6c0-2.2,0-4.4,0-6.6c0-0.3,0-0.5-0.1-0.8c-0.8,1.7-1.2,3.6-2,5.6
		c-0.6-2-1.2-3.9-1.8-5.7c-0.3,0.3-0.3,0.6-0.3,0.9c0,2.5,0,5,0,7.5c0,0.6-0.1,0.7-0.7,0.7c-1.6,0-1.6,0-1.6-1.6c0-4.8,0-9.6,0-14.4
		c0-0.6,0.2-0.8,0.8-0.7c1.6,0.2,1.6,0.2,2.1,1.8c0.4,1.4,0.8,2.9,1.3,4.3C99.9,13.3,99.9,13.5,100.3,13.8z"/>
	<path class="st0" d="M55,16c0,1,0,1.9,0,2.8c0,1.4,0,2.8,0,4.3c0,0.5-0.2,0.6-0.6,0.6c-1.7,0-1.7,0-1.7-1.7c0-4.8,0-9.5,0-14.3
		c0-0.6,0.1-0.9,0.8-0.8c1.5,0.1,1.5,0,1.8,1.5c0.4,1.7,0.8,3.3,1.2,5c0.1,0.3,0.2,0.6,0.5,1c0-0.4,0-0.6,0-0.9
		c0-1.9,0.1-3.9,0.1-5.8c0-0.5,0.1-0.6,0.6-0.6c1.6,0,1.6,0,1.6,1.6c0,4.7,0.1,9.5,0.1,14.2c0,0.7-0.1,1-0.9,0.9
		c-1.6-0.1-1.6,0-1.9-1.6c-0.4-1.9-0.9-3.8-1.4-5.8C55.3,16.3,55.3,16.1,55,16z"/>
	<path class="st0" d="M19.4,14.6c0-2.3,0-4.5,0.1-6.7c0-0.7,0.2-0.9,0.9-0.9c1.4,0.1,1.4,0,1.4,1.4c0,4.8,0,9.6,0,14.4
		c0,0.6-0.1,0.8-0.8,0.8c-1.6,0-1.6,0.1-1.9-1.5c-0.4-1.9-0.9-3.7-1.3-5.6c0-0.2-0.1-0.3-0.2-0.5c-0.2,0.3-0.1,0.6-0.1,0.8
		c0,2,0,4,0,6c0,0.5-0.1,0.7-0.7,0.7C15,23.5,15,23.5,15,21.9c0-4.7,0-9.3,0-14c0-0.8,0.2-1,1-1c1.3,0.1,1.3,0,1.6,1.3
		c0.5,1.9,1,3.8,1.4,5.8C19,14.2,19.1,14.3,19.4,14.6z"/>
	<path class="st0" d="M37.6,15.3c0-2.2,0-4.4,0-6.6c0-1.1,0.5-1.7,1.7-1.7c0.9,0,1.9,0,2.8,0c1,0,1.6,0.6,1.6,1.6c0,4.5,0,9,0,13.4
		c0,1-0.6,1.6-1.6,1.6c-1,0-2,0-3,0c-0.9,0-1.5-0.6-1.5-1.5C37.6,19.8,37.6,17.5,37.6,15.3z M41.2,15.3c0-1.7,0-3.5,0-5.2
		c0-0.3,0.1-0.7-0.5-0.7c-0.5,0-0.6,0.3-0.6,0.7c0,3.5,0,7,0,10.4c0,0.4,0,0.7,0.5,0.7c0.5,0,0.5-0.3,0.5-0.7
		C41.2,18.8,41.2,17,41.2,15.3z"/>
	<path class="st0" d="M163.1,14.3c0-1.4,0-3.6,0.1-5.8c0-1,0.5-1.5,1.5-1.5c0.9,0,1.9,0,2.8,0c1.1,0,1.6,0.6,1.6,1.6
		c0,4.4,0,8.9,0,13.3c0,1.1-0.6,1.6-1.6,1.6c-1,0-1.9,0.1-2.9,0c-0.9-0.1-1.3-0.6-1.4-1.5C163.1,19.8,163.1,17.5,163.1,14.3z
		 M166.7,15.3c0-1.7,0-3.4,0-5.2c0-0.4,0.1-0.8-0.5-0.8c-0.6,0-0.6,0.3-0.6,0.7c0,3.5,0,6.9,0,10.4c0,0.4,0,0.7,0.6,0.7
		c0.6,0,0.5-0.4,0.5-0.8C166.7,18.7,166.7,17,166.7,15.3z"/>
	<path class="st0" d="M94.4,15.3c0,2.2,0,4.4-0.1,6.6c0,1.1-0.4,1.5-1.5,1.6c-1,0.1-2,0.1-3,0c-0.9-0.1-1.4-0.5-1.4-1.4
		c-0.2-4.6-0.2-9.2,0-13.7c0-0.9,0.5-1.3,1.4-1.4c1-0.1,2-0.1,3,0c1.1,0.1,1.5,0.5,1.5,1.6C94.4,10.9,94.5,13.1,94.4,15.3z
		 M90.8,15.2c0,1.7,0,3.5,0,5.2c0,0.4,0,0.7,0.6,0.7c0.5,0,0.5-0.3,0.5-0.7c0-3.5,0-7,0-10.5c0-0.4-0.1-0.6-0.6-0.6
		c-0.5,0-0.5,0.3-0.5,0.7C90.8,11.8,90.8,13.5,90.8,15.2z"/>
	<path class="st0" d="M30.4,15.3c0-2.6,0-5.1,0-7.7c0-0.6,0.2-0.7,0.7-0.7c1.3,0,2.6,0,3.9,0.1c0.9,0.1,1.3,0.5,1.4,1.4
		c0.2,1.9,0.1,3.8-0.1,5.7c0,0.7-0.1,1.4,0,2.1c0.3,2.3,0.1,4.6,0,6.9c-0.1,0.9-1.3,0.3-1.9,0.5c-0.5,0.1-0.4-0.3-0.4-0.6
		c0-2,0-3.9,0-5.9c0-0.5-0.1-0.8-0.7-0.8c-0.5,0-0.6,0.2-0.6,0.6c0,2,0,3.9,0,5.9c0,0.6-0.1,0.8-0.8,0.8c-1.6,0-1.6,0-1.6-1.6
		C30.4,19.8,30.4,17.6,30.4,15.3z M34,11.7c0-0.6,0-1.2,0-1.8c0-0.5-0.2-0.6-0.6-0.6c-0.4,0-0.6,0.1-0.6,0.6c0,1.2,0,2.4,0,3.6
		c0,0.4,0.2,0.5,0.6,0.5c0.4,0,0.6-0.1,0.6-0.6C34,12.9,34,12.3,34,11.7z"/>
	<path class="st0" d="M109.9,15.3c0-2.6,0-5.1,0-7.7c0-0.5,0.1-0.7,0.7-0.7c1.3,0.1,2.6,0.1,3.9,0.1c0.9,0,1.4,0.6,1.4,1.5
		c0,4.5,0,9.1,0,13.6c0,0.9-0.6,1.5-1.5,1.5c-1.3,0-2.5,0.1-3.8,0.1c-0.5,0-0.7-0.1-0.7-0.7C109.9,20.4,109.9,17.9,109.9,15.3z
		 M112.3,15.2c0,1.8,0,3.6,0,5.4c0,0.4,0.1,0.6,0.5,0.6c0.4,0,0.6-0.1,0.6-0.6c0-3.5,0-7.1,0-10.6c0-0.4-0.1-0.6-0.6-0.6
		c-0.5,0-0.6,0.2-0.6,0.6C112.3,11.7,112.3,13.5,112.3,15.2z"/>
	<path class="st0" d="M148.1,18.4c-0.4,1-0.5,1.9-0.8,2.9c-0.2,0.6-0.3,1.2-0.4,1.9c-0.1,0.4-0.2,0.5-0.6,0.5c-2.3,0-2,0.1-1.5-1.8
		c0.5-1.9,0.9-3.7,1.5-5.6c0.2-0.6,0.2-1.2,0-1.9c-0.6-2.2-1.1-4.4-1.7-6.5c-0.2-0.8-0.1-0.9,0.7-1c0.2,0,0.5,0,0.7,0
		c0.5,0,0.8,0.2,0.9,0.8c0.2,1.3,0.6,2.6,0.8,3.9c0,0.1,0,0.3,0.3,0.4c0.4-1,0.5-2,0.8-3c0-0.1,0.1-0.3,0.1-0.4
		c0.4-1.6,0.4-1.6,2.1-1.6c0.6,0,0.7,0.2,0.6,0.8c-0.6,2.3-1.2,4.6-1.8,6.9c-0.1,0.4-0.1,0.9,0,1.3c0.6,2.3,1.2,4.6,1.8,6.9
		c0.2,0.6,0,0.9-0.6,0.9c-0.1,0-0.2,0-0.4,0c-1.2,0-1.3,0-1.5-1.2c-0.2-1.1-0.4-2.2-0.7-3.4C148.4,18.9,148.3,18.7,148.1,18.4z"/>
	<path class="st0" d="M77,15.3c0,1.8,0,3.5,0,5.3c0,0.5,0.2,0.6,0.6,0.6c0.5,0,0.6-0.2,0.6-0.6c0-2,0-3.9,0-5.9
		c0-0.5,0.2-0.7,0.7-0.6c1.7,0.1,1.7,0.1,1.7,1.8c0,2,0,4,0,6c0,1.2-0.5,1.6-1.7,1.7c-0.9,0-1.9,0.1-2.8,0c-1-0.1-1.4-0.5-1.4-1.5
		c-0.2-4.6-0.2-9.1,0-13.7c0-1,0.5-1.4,1.4-1.4c1,0,2.1-0.1,3.1-0.1c0.4,0,0.6,0.1,0.6,0.6c0,0.5,0.1,1,0.2,1.4
		c0.1,0.5-0.1,0.5-0.4,0.5c-0.6,0-1.3,0-1.9,0C77.1,9.3,77,9.5,77,10C77,11.8,77,13.5,77,15.3z"/>
	<path class="st0" d="M137.8,15.2c0-2.5,0-5,0-7.5c0-0.6,0.1-0.8,0.8-0.8c1.3,0.1,2.6,0,3.9,0.1c0.4,0,0.6,0.2,0.7,0.6
		c0.3,1.8,0.3,1.8-1.5,1.8c-1.3,0-1.3,0-1.3,1.3c0,0.9,0,1.8,0,2.8c0,0.5,0.2,0.6,0.6,0.6c0.5,0,0.9,0,1.4,0c0.1,0,0.3,0,0.4,0
		c0.7,0.5,0.2,1.2,0.3,1.8c0.1,0.3,0,0.5-0.4,0.5c-0.6,0-1.1,0-1.7,0c-0.4,0-0.6,0.1-0.6,0.5c0,1.3,0,2.6,0,3.9
		c0,0.4,0.2,0.5,0.6,0.5c0.7,0,1.3,0,2,0c0.4,0,0.5,0.1,0.4,0.5c-0.1,0.6-0.2,1.1-0.3,1.7c-0.1,0.4-0.3,0.3-0.6,0.3
		c-1.3,0-2.6,0-4,0c-0.5,0-0.7-0.2-0.7-0.7C137.9,20.4,137.8,17.8,137.8,15.2z"/>
	<path class="st0" d="M11.1,7c0.7,0,1.3,0,2,0c0.3,0,0.5,0,0.6,0.3c0.1,0.6,0.2,1.2,0.2,1.8c0,0.4-0.2,0.3-0.4,0.3c-0.7,0-1.3,0-2,0
		c-0.4,0-0.6,0.1-0.6,0.6c0,1.2,0,2.4,0,3.6c0,0.4,0.1,0.6,0.6,0.6c0.5,0,1.1,0,1.6,0c0.4,0,0.5,0.1,0.5,0.5
		c0.1,1.8,0.1,1.8-1.7,1.8c-1.1,0-1-0.1-1,0.9c0,1,0,2.1,0,3.1c0,0.6,0.2,0.8,0.8,0.8c0.5,0,1,0,1.5,0c0.6,0,0.9,0.2,0.7,0.8
		c0,0,0,0.1,0,0.1c-0.3,1.5-0.3,1.5-1.8,1.5c-1,0-2,0-3,0c-0.4,0-0.6-0.1-0.6-0.5c0-5.2,0-10.5,0-15.7C8.4,7,8.7,6.9,9,6.9
		c0.7,0,1.4,0,2.1,0C11.1,6.9,11.1,7,11.1,7z"/>
	<path class="st0" d="M117.2,15.3c0-2.6,0-5.1,0-7.7c0-0.5,0.1-0.7,0.7-0.7c1.3,0.1,2.7,0.1,4,0.1c0.2,0,0.5,0,0.5,0.3
		c0.1,0.6,0.2,1.2,0.3,1.8c0,0.4-0.2,0.2-0.4,0.2c-0.7,0-1.3,0-2,0c-0.4,0-0.6,0.1-0.6,0.6c0,1.2,0,2.4,0,3.6c0,0.4,0.2,0.6,0.6,0.5
		c0.2,0,0.4,0,0.7,0c0.5,0,1.2-0.2,1.3,0.1c0.3,0.6,0.1,1.3,0.1,2c0,0.3-0.3,0.2-0.5,0.2c-0.6,0-1.1,0-1.7,0c-0.4,0-0.5,0.1-0.5,0.5
		c0,1.3,0,2.5,0,3.8c0,0.4,0.1,0.5,0.5,0.5c0.6,0,1.1,0,1.7,0c0.2,0,0.5,0,0.6,0.1c0.5,0.6-0.1,1.2,0,1.8c0,0.3-0.1,0.5-0.5,0.5
		c-1.4,0-2.8,0.1-4.3,0.1c-0.6,0-0.5-0.3-0.5-0.7C117.2,20.4,117.2,17.8,117.2,15.3z"/>
	<path class="st0" d="M70.8,7c0.7,0,1.3,0,2,0c0.3,0,0.5,0.1,0.5,0.5c0,0,0,0,0,0.1c0.2,1.8,0.7,1.8-1.5,1.8c-1.3,0-1.3,0-1.3,1.3
		c0,0.9,0,1.8,0,2.7c0,0.6,0.2,0.8,0.8,0.7c0.4,0,0.8,0,1.3,0c0.1,0,0.3,0,0.4,0c0.7,0.5,0.2,1.2,0.3,1.8c0.1,0.3,0,0.5-0.4,0.5
		c-0.6,0-1.1,0-1.7,0c-0.4,0-0.5,0.1-0.5,0.5c0,1.3,0,2.6,0,3.9c0,0.3,0.1,0.5,0.5,0.5c0.6,0,1.3,0,1.9,0c0.5,0,0.7,0.2,0.6,0.7
		c0,0.1-0.1,0.2-0.1,0.4c-0.3,1.4-0.3,1.4-1.8,1.4c-0.9,0-1.9-0.1-2.8-0.1c-0.5,0-0.6-0.1-0.6-0.6c0-5.1,0-10.1,0-15.2
		c0-0.7,0.2-0.9,0.9-0.8C69.6,7,70.2,7,70.8,7C70.8,7,70.8,7,70.8,7z"/>
	<path class="st0" d="M2,15.2c0-2.2,0-4.4,0-6.6C2,7.6,2.6,7,3.6,7c1,0,2,0,3.1,0c0.4,0,0.6,0.2,0.7,0.6c0.4,1.8,0.4,1.8-1.4,1.8
		c-1.4,0-1.4,0-1.4,1.4c0,3.3,0,6.5,0,9.8c0,0.6,0.2,0.7,0.7,0.7c0.6,0,1.2,0,1.9,0c0.4,0,0.5,0.1,0.4,0.5c-0.1,0.4-0.1,0.9-0.2,1.3
		c-0.1,0.5-0.4,0.6-0.8,0.6c-1.1,0-2.3,0-3.4-0.1C2.6,23.5,2,22.7,2,22C2,19.8,2,17.5,2,15.2z"/>
	<path class="st0" d="M67.2,9.3c-0.1,0-0.2,0-0.2,0.1c-0.6,0.1-1.3-0.2-1.7,0.1c-0.4,0.4-0.1,1.2-0.1,1.8c0,3.9,0,7.7,0,11.6
		c0,0.6-0.1,0.9-0.8,0.9c-1.9,0-1.9,0-1.9-1.9c0-3.9,0-7.8,0-11.7c0-0.6-0.1-0.8-0.7-0.8c-1.3,0-1.2,0-1.1-1.3
		C60.7,7.1,61.1,7,61.9,7c1.5-0.1,2.9,0,4.4-0.1C66.8,6.9,67,7,67,7.5C67,8.1,67.1,8.7,67.2,9.3z"/>
	<path class="st0" d="M24.9,16.5c0-2.1,0-4.3,0-6.4c0-0.6-0.1-0.8-0.7-0.8c-1.5,0-1.5,0-1.2-1.5c0.2-1,0.2-1,1.3-1
		C25.7,7,27.1,7,28.6,7c0.5,0,0.7,0.2,0.7,0.7c0,0.5,0.4,1.1,0.1,1.5c-0.3,0.4-1,0.1-1.5,0.2c-0.5,0-0.4,0.3-0.4,0.6
		c0,1.9,0,3.8,0,5.7c0,2.5,0,4.9,0,7.4c0,0.5-0.1,0.7-0.6,0.7c-2,0-2,0-2-2C24.9,20,24.9,18.3,24.9,16.5z"/>
	<path class="st0" d="M82,15.1c0-2.3,0-4.5,0-6.8c0-0.8,0.4-1.3,1.2-1.3c1.1-0.1,2.3,0,3.4,0c0.3,0,0.4,0.2,0.5,0.4c0,0,0,0,0,0.1
		c0.4,1.8,0.4,1.8-1.5,1.8c-1.3,0-1.3,0-1.3,1.3c0,3.2,0,6.4,0,9.6c0,0.8,0.2,1,1,0.9c0.4-0.1,0.9,0,1.3,0c0.6,0,0.8,0.2,0.7,0.8
		c-0.2,1.5-0.1,1.5-1.6,1.6c-0.8,0-1.6,0-2.4,0C82.5,23.5,82,23,82,22.2C81.8,19.8,81.8,17.5,82,15.1z"/>
	<path class="st0" d="M156.8,15.2c0-2.3,0-4.5,0-6.8c0-0.9,0.5-1.3,1.3-1.4c1.1,0,2.1,0,3.2,0c0.5,0,0.6,0.2,0.7,0.6
		c0,0.1,0,0.3,0,0.4c0.1,1.3,0.1,1.3-1.3,1.3c-1.6,0-1.6,0-1.6,1.6c0,3.2,0,6.4,0,9.6c0,0.5,0.1,0.8,0.7,0.7c0.5,0,1,0,1.6,0
		c0.2,0,0.4,0,0.5,0.1c0.4,0.1,0.3,0.5,0.2,0.7c-0.3,0.5,0.3,1.4-0.6,1.5c-1.2,0.1-2.4,0-3.7,0c-0.6,0-1.2-0.8-1.2-1.5
		c0-2.3,0-4.6,0-6.9C156.7,15.2,156.8,15.2,156.8,15.2z"/>
	<path class="st0" d="M152.9,15.3c0-2.6,0-5.2,0-7.8c0-0.5,0.1-0.7,0.6-0.7c1.9,0,1.9-0.1,1.9,1.8c0,4.7,0,9.4,0,14.1
		c0,0.6-0.1,0.9-0.8,0.9c-1.7-0.1-1.7,0-1.7-1.7C152.9,19.8,152.9,17.5,152.9,15.3z"/>
	<path class="st0" d="M51.4,15.3c0,2.6,0,5.2,0,7.8c0,0.5-0.1,0.6-0.6,0.7c-1.9,0-1.9,0-1.9-1.8c0-4.7,0-9.4,0-14.1
		c0-0.6,0.1-0.9,0.8-0.9c1.7,0.1,1.7,0,1.7,1.7C51.4,10.8,51.4,13.1,51.4,15.3z"/>
	<path class="st0" d="M141.1,4.2c0.5,0,0.8,0.1,0.4,0.6c-0.3,0.5-0.5,1-0.8,1.4c-0.1,0.2-0.4,0.4-0.6,0.2c-0.3-0.1-0.1-0.4-0.1-0.6
		c0.1-0.4,0.3-0.8,0.4-1.3C140.5,4.3,140.7,4.1,141.1,4.2z"/>
</g>
</svg>
