<?xml version="1.0" encoding="utf-8"?>
<!-- Generator: Adobe Illustrator 23.0.2, SVG Export Plug-In . SVG Version: 6.00 Build 0)  -->
<svg version="1.1" id="Capa_1" xmlns="http://www.w3.org/2000/svg" xmlns:xlink="http://www.w3.org/1999/xlink" x="0px" y="0px"
	 viewBox="0 0 1920.1 898.7" style="enable-background:new 0 0 1920.1 898.7;" xml:space="preserve">
<style type="text/css">
	.st0{opacity:0.11;fill:url(#Path_195_1_);enable-background:new    ;}
	.st1{fill:url(#Path_194_1_);}
	.st2{clip-path:url(#SVGID_2_);}
	.st3{opacity:0.14;fill:none;stroke:#361CC1;stroke-width:128;enable-background:new    ;}
</style>
<linearGradient id="Path_195_1_" gradientUnits="userSpaceOnUse" x1="277.2978" y1="719.9655" x2="277.2978" y2="719.1532" gradientTransform="matrix(1920.1833 0 0 -1075.636 -531502.5 774420.75)">
	<stop  offset="0" style="stop-color:#361CC1"/>
	<stop  offset="1" style="stop-color:#2E82EF"/>
</linearGradient>
<path id="Path_195" class="st0" d="M-0.1,405.4c0,0,100.4,239.9,401.2,191.5s442.1,9.6,537.6,114.9s352.1,94.3,581,52.4
	s363.2,41.8,400.4,109.4c0,0-0.4-873.6-0.4-873.6L0,0L-0.1,405.4z"/>
<linearGradient id="Path_194_1_" gradientUnits="userSpaceOnUse" x1="277.2977" y1="719.9655" x2="277.2977" y2="719.1532" gradientTransform="matrix(1920.1058 0 0 -1075.6212 -531480.9375 774410.125)">
	<stop  offset="0" style="stop-color:#361CC1"/>
	<stop  offset="1" style="stop-color:#2E82EF"/>
</linearGradient>
<path id="Path_194" class="st1" d="M0,405.6c0,0,95.3,204.2,401.2,161.1c305.9-43,419.7-32.1,544.2,96.9s344,107.5,572.9,67.1
	s360.2,68.2,401.8,143c0-2.4-0.1-873.6-0.1-873.6L0,0L0,405.6z"/>
<g>
	<defs>
		<path id="SVGID_1_" d="M0,405.6c0,0,95.3,204.2,401.2,161.1c305.9-43,419.7-32.1,544.2,96.9s344,107.5,572.9,67.1
			s360.2,68.2,401.8,143c0-2.4-0.1-873.6-0.1-873.6L0,0L0,405.6z"/>
	</defs>
	<clipPath id="SVGID_2_">
		<use xlink:href="#SVGID_1_"  style="overflow:visible;"/>
	</clipPath>
	<g id="Mask_Group_6" class="st2">
		<path id="Path_4" class="st3" d="M25.7,485.8c0,0,174.2-392,817.4-255s869.4,77.5,1056.2-464"/>
	</g>
</g>
</svg>
