<svg id="Capa_1" width="77.034" height="76.874" data-name="Capa 1" xmlns="http://www.w3.org/2000/svg" viewBox="0 0 452.52 522.52"><defs><style>.cls-1{fill:#297abf;}.cls-2{fill:#fff;}.cls-3{fill:#4ea4db;}</style></defs><title>certificados</title><polygon class="cls-1" points="0 130.63 0 391.89 226.26 522.52 452.52 391.89 452.52 130.63 226.26 0 0 130.63"/><polygon class="cls-2" points="96.18 169.29 96.18 384.82 152.32 384.82 152.32 335.26 300.19 335.26 300.19 384.82 356.33 384.82 356.33 169.29 96.18 169.29"/><rect class="cls-2" x="84.96" y="128.56" width="282.6" height="51.33"/><circle class="cls-3" cx="226.26" cy="240.99" r="55.04"/><polygon class="cls-2" points="257.22 234.96 232.29 234.96 232.29 210.03 220.22 210.03 220.22 234.96 195.3 234.96 195.3 247.03 220.22 247.03 220.22 271.95 232.29 271.95 232.29 247.03 257.22 247.03 257.22 234.96"/></svg>