<svg id="Capa_1" data-name="Capa 1" xmlns="http://www.w3.org/2000/svg" width="77.034" height="76.874" viewBox="0 0 452.52 522.52"><defs><style>.cls-1{fill:#4ea4db;}.cls-2{fill:none;stroke:#fff;stroke-miterlimit:10;stroke-width:2.41px;}.cls-3{fill:#fff;}.cls-4{fill:#80ceec;}</style></defs><title>consulta</title><polygon class="cls-1" points="0 130.63 0 391.89 226.26 522.52 452.52 391.89 452.52 130.63 226.26 0 0 130.63"/><path class="cls-2" d="M240,323.09v14.63a66.57,66.57,0,0,1-66.57,66.57h0a66.56,66.56,0,0,1-66.57-66.57V224.42"/><path class="cls-3" d="M128.19,224.42a21.38,21.38,0,1,1-21.38-21.37A21.38,21.38,0,0,1,128.19,224.42Z"/><path class="cls-4" d="M118.22,224.42A11.41,11.41,0,1,1,106.81,213,11.41,11.41,0,0,1,118.22,224.42Z"/><path class="cls-2" d="M255.71,159h48.78a18.24,18.24,0,0,1,18.28,18.59c-.74,32.56-7.5,99.64-48.6,133.35a54.41,54.41,0,0,1-68.45,0c-41.1-33.71-47.85-100.79-48.59-133.35A18.23,18.23,0,0,1,175.4,159h48.79"/><path class="cls-4" d="M240,331.35a63.77,63.77,0,0,1-42-15.72c-15.27-13.36-27.27-32.17-35.66-55.9A8.61,8.61,0,0,1,178.47,254c7.38,20.92,17.74,37.3,30.76,48.69a46.84,46.84,0,0,0,61.43,0c13-11.4,23.38-27.77,30.77-48.68a8.6,8.6,0,1,1,16.22,5.73c-8.38,23.73-20.38,42.54-35.66,55.9A63.72,63.72,0,0,1,240,331.35Z"/><path class="cls-3" d="M237.07,159a13.7,13.7,0,1,1-13.7-13.7A13.7,13.7,0,0,1,237.07,159Z"/><path class="cls-3" d="M269.85,159a13.7,13.7,0,1,1-13.7-13.7A13.7,13.7,0,0,1,269.85,159Z"/></svg>