<svg id="Capa_1" data-name="Capa 1" width="77.034" height="76.874" xmlns="http://www.w3.org/2000/svg" viewBox="0 0 452.52 522.52"><defs><style>.cls-1{fill:#80ceec;}.cls-2{fill:#297abf;}.cls-3{fill:#fff;}.cls-4{fill:none;stroke:#297abf;stroke-miterlimit:10;stroke-width:1.5px;}.cls-5{fill:#4ea4db;}</style></defs><title>consultaUrgencias</title><polygon class="cls-1" points="-0.19 130.52 -0.19 392 226.26 522.74 452.7 392 452.7 130.52 226.26 -0.22 -0.19 130.52"/><rect class="cls-2" x="113.51" y="131.45" width="225.49" height="266.18"/><rect class="cls-3" x="141.29" y="164.24" width="169.94" height="200.6"/><line class="cls-4" x1="166.4" y1="206.62" x2="286.12" y2="206.62"/><line class="cls-4" x1="166.4" y1="234.64" x2="286.12" y2="234.64"/><line class="cls-4" x1="166.4" y1="262.67" x2="286.12" y2="262.67"/><line class="cls-4" x1="166.4" y1="290.69" x2="286.12" y2="290.69"/><line class="cls-4" x1="166.4" y1="318.72" x2="286.12" y2="318.72"/><path class="cls-5" d="M245.67,113.13a20.59,20.59,0,1,0-40-6.73,20.32,20.32,0,0,0,1.22,6.73H156.56v27.8H296v-27.8Z"/></svg>