<svg id="Capa_1" width="77.034" height="76.874" data-name="Capa 1" xmlns="http://www.w3.org/2000/svg" viewBox="0 0 452.52 522.52"><defs><style>.cls-1{fill:#4ea4db;}.cls-2{fill:#fff;}.cls-3{fill:#80ceec;}</style></defs><title>hipno</title><polygon class="cls-1" points="-0.19 130.52 -0.19 392 226.26 522.74 452.7 392 452.7 130.52 226.26 -0.22 -0.19 130.52"/><path class="cls-2" d="M345.47,225.86,190.86,380.48a59.28,59.28,0,0,1-83.82,0h0a59.28,59.28,0,0,1,0-83.82L261.66,142a59.27,59.27,0,0,1,83.81,0h0A59.26,59.26,0,0,1,345.47,225.86Z"/><rect class="cls-1" x="170.12" y="201.99" width="112.27" height="118.53" transform="translate(-118.47 236.51) rotate(-45)"/><path class="cls-1" d="M266.1,172.56a5.55,5.55,0,1,1-7.85,0A5.56,5.56,0,0,1,266.1,172.56Z"/><path class="cls-1" d="M290.53,197a5.55,5.55,0,1,1-7.85,0A5.56,5.56,0,0,1,290.53,197Z"/><path class="cls-1" d="M324,163.54a5.55,5.55,0,1,1-7.85,0A5.56,5.56,0,0,1,324,163.54Z"/><path class="cls-1" d="M315,221.42a5.55,5.55,0,1,1-7.85,0A5.56,5.56,0,0,1,315,221.42Z"/><path class="cls-1" d="M296.49,166.9a5.54,5.54,0,1,1-7.84,0A5.53,5.53,0,0,1,296.49,166.9Z"/><path class="cls-1" d="M320.92,191.33a5.54,5.54,0,1,1-7.84,0A5.53,5.53,0,0,1,320.92,191.33Z"/><path class="cls-1" d="M137.56,301.1a5.55,5.55,0,1,0,0-7.85A5.56,5.56,0,0,0,137.56,301.1Z"/><path class="cls-1" d="M162,325.53a5.55,5.55,0,1,0,0-7.85A5.56,5.56,0,0,0,162,325.53Z"/><path class="cls-1" d="M128.54,359a5.55,5.55,0,1,0,0-7.85A5.56,5.56,0,0,0,128.54,359Z"/><path class="cls-1" d="M186.42,350a5.55,5.55,0,1,0,0-7.85A5.56,5.56,0,0,0,186.42,350Z"/><path class="cls-1" d="M131.89,331.5a5.55,5.55,0,1,0,0-7.85A5.56,5.56,0,0,0,131.89,331.5Z"/><path class="cls-1" d="M156.32,355.93a5.55,5.55,0,1,0,0-7.85A5.56,5.56,0,0,0,156.32,355.93Z"/><path class="cls-2" d="M190.86,142,345.47,296.66a59.26,59.26,0,0,1,0,83.82h0a59.27,59.27,0,0,1-83.81,0L107,225.86A59.28,59.28,0,0,1,107,142h0A59.28,59.28,0,0,1,190.86,142Z"/><rect class="cls-3" x="170.12" y="201.99" width="112.27" height="118.53" transform="translate(201.51 605.99) rotate(-135)"/><path class="cls-1" d="M137.56,221.42a5.55,5.55,0,1,1,0,7.85A5.56,5.56,0,0,1,137.56,221.42Z"/><path class="cls-1" d="M162,197a5.55,5.55,0,1,1,0,7.85A5.56,5.56,0,0,1,162,197Z"/><path class="cls-1" d="M128.54,163.54a5.55,5.55,0,1,1,0,7.85A5.56,5.56,0,0,1,128.54,163.54Z"/><path class="cls-1" d="M186.42,172.56a5.55,5.55,0,1,1,0,7.85A5.56,5.56,0,0,1,186.42,172.56Z"/><path class="cls-1" d="M131.89,191a5.55,5.55,0,1,1,0,7.85A5.56,5.56,0,0,1,131.89,191Z"/><path class="cls-1" d="M156.32,166.59a5.55,5.55,0,1,1,0,7.85A5.56,5.56,0,0,1,156.32,166.59Z"/><path class="cls-1" d="M266.1,350a5.55,5.55,0,1,0-7.85,0A5.56,5.56,0,0,0,266.1,350Z"/><path class="cls-1" d="M290.53,325.53a5.55,5.55,0,1,0-7.85,0A5.56,5.56,0,0,0,290.53,325.53Z"/><path class="cls-1" d="M324,359a5.55,5.55,0,1,0-7.85,0A5.56,5.56,0,0,0,324,359Z"/><path class="cls-1" d="M315,301.1a5.55,5.55,0,1,0-7.85,0A5.56,5.56,0,0,0,315,301.1Z"/><path class="cls-1" d="M296.49,355.62a5.54,5.54,0,1,0-7.84,0A5.53,5.53,0,0,0,296.49,355.62Z"/><path class="cls-1" d="M320.92,331.19a5.54,5.54,0,1,0-7.84,0A5.53,5.53,0,0,0,320.92,331.19Z"/></svg>