<svg id="Capa_1" data-name="Capa 1" xmlns="http://www.w3.org/2000/svg" viewBox="0 0 800 800"><defs><style>.cls-1{fill:#e9f5f7;}.cls-2{fill:#d5edf0;}.cls-3{fill:#2e3191;}.cls-4{fill:#be1e2d;}</style></defs><title>icion</title><rect class="cls-1" x="260.81" y="47.21" width="278.37" height="693.79"/><rect class="cls-2" x="53.1" y="254.93" width="693.79" height="278.37"/><path class="cls-3" d="M315.65,514.27C304,451.55,335.77,384.83,391.22,356c60.92-31.7,132.77-20.42,178.83,28,13.44,14.15,12.17,22.26-5.28,32.45Q456.62,479.65,348.39,542.73c-14.38,8.38-22,5.45-27.66-10.45-2.06-5.87-3.41-12-5.08-18"/><path class="cls-3" d="M481.77,634.12c-44.74,6.79-89.67-7.07-126.84-44.55-13.47-13.56-12.37-22.41,4-32q109.49-64.2,219.2-128.06c12-7,21-3,25.57,10.72C632,525.68,577.81,616.72,481.77,634.12"/><path class="cls-4" d="M230.24,212c81.67-15.15,153.11,38.25,161,113.42.84,8-2.45,11.61-8.63,16.62-17.19,13.88-34.35,10.63-53.38,5.56-55.55-14.79-111.45-28.31-167.19-42.4-21.08-5.33-24.63-14.11-13.2-32.87,20.44-33.57,50.3-53.68,81.45-60.33"/><path class="cls-4" d="M341.81,369.77c-4.54,5.37-8.21,9.45-11.62,13.75-16.88,21.34-28.1,45.36-32.52,72.21-1.27,7.69-5,10.34-11.94,11.75-80.37,16.4-158.31-49.44-155.32-131.4.46-12.42,9-18.33,22.62-15,22.22,5.38,44.34,11.11,66.5,16.73Q275.44,352,331.3,366.27c3.17.81,6.23,2.06,10.51,3.5"/><path class="cls-4" d="M504.56,259.7a40.17,40.17,0,1,0-40.17,40.16,40.18,40.18,0,0,0,40.17-40.16"/><path class="cls-3" d="M526.91,157.6A22.36,22.36,0,1,0,504.56,180a22.36,22.36,0,0,0,22.35-22.37"/><path class="cls-4" d="M297.66,584.82a28.36,28.36,0,1,0-28.36,28.36,28.36,28.36,0,0,0,28.36-28.36"/><path class="cls-3" d="M229.32,529a27.5,27.5,0,1,0-27.48,27.5A27.48,27.48,0,0,0,229.32,529"/></svg>