<?xml version="1.0" encoding="utf-8"?>
<!-- Generator: Adobe Illustrator 23.0.2, SVG Export Plug-In . SVG Version: 6.00 Build 0)  -->
<svg version="1.1" id="Capa_1" xmlns="http://www.w3.org/2000/svg" xmlns:xlink="http://www.w3.org/1999/xlink" x="0px" y="0px"
	 viewBox="0 0 1920.2 1054.9" style="enable-background:new 0 0 1920.2 1054.9;" xml:space="preserve">
<style type="text/css">
	.st0{opacity:0.11;fill:url(#Path_195_1_);enable-background:new    ;}
	.st1{fill:url(#Path_194_1_);}
</style>
<g id="Group_111" transform="translate(0.13 -6328.591)">
	
		<linearGradient id="Path_195_1_" gradientUnits="userSpaceOnUse" x1="277.2257" y1="7238.7266" x2="277.2257" y2="7239.7266" gradientTransform="matrix(1920.193 0 0 -1054.854 -531366.9375 7643183)">
		<stop  offset="0" style="stop-color:#361CC1"/>
		<stop  offset="1" style="stop-color:#2E82EF"/>
	</linearGradient>
	<path id="Path_195" class="st0" d="M1920.1,6785.9c0,0-85.9-337.8-386.7-270.2s-439.4,217.9-538.3,72.7s-352-127-574.6-79.2
		s-302.4-21.5-420.6-180.6c0,0,0.1,1054.9,0.1,1054.9H1920L1920.1,6785.9z"/>
	
		<linearGradient id="Path_194_1_" gradientUnits="userSpaceOnUse" x1="277.2257" y1="7238.7266" x2="277.2257" y2="7239.7266" gradientTransform="matrix(1920.062 0 0 -1054.71 -531330.625 7642140.5)">
		<stop  offset="0" style="stop-color:#361CC1"/>
		<stop  offset="1" style="stop-color:#2E82EF"/>
	</linearGradient>
	<path id="Path_194" class="st1" d="M1920,6786c0,0-86.3-291.5-385.9-226.4s-437.7,217.9-536.1,78.1
		c-98.5-139.9-348.5-144.6-576.5-88.3c-228,56.3-380-116.5-421.4-220.6c0.1,8,0,1054.7,0,1054.7h1920L1920,6786z"/>
</g>
</svg>
