<svg id="Capa_1" data-name="Capa 1" xmlns="http://www.w3.org/2000/svg" viewBox="0 0 370.19 427.46"><defs><style>.cls-1{fill:#297abf;}.cls-2{fill:#fff;}</style></defs><title>3</title><polygon class="cls-1" points="0 106.86 0 320.59 185.09 427.46 370.19 320.59 370.19 106.86 185.09 0 0 106.86"/><path class="cls-2" d="M189.27,175.47c-1.31,3.31-2.49,6.38-3.41,9.54-1.24,4.26-2.73,8.45-3.79,12.76-1,4.11-2.16,8.19-2.93,12.34-1.13,6.15-2.27,12.3-3,18.53q-1.32,11-1.73,22.14a228.1,228.1,0,0,0,.42,24.25c.37,5.29.93,10.55,1.57,15.81.21,1.74.56,3.47.8,5.2.17,1.13-.12,1.35-1.15.86-4.55-2.19-9.22-4.13-13.63-6.61a56.79,56.79,0,0,1-9.45-7.05,76.14,76.14,0,0,1-13.3-15,64.66,64.66,0,0,1-10-24.27,88.67,88.67,0,0,1-1.46-17.51,77,77,0,0,1,1.65-14.28,88.73,88.73,0,0,1,9.37-25.05,115.31,115.31,0,0,1,13.29-19.23A146,146,0,0,1,163,156.7c3.85-3.69,7.91-7.14,12-10.51a69.27,69.27,0,0,0,13.78-14.67,48.21,48.21,0,0,0,6.47-13.15,6.4,6.4,0,0,1,.2-.62c.12-.29.14-.71.5-.77s.55.41.69.7c.72,1.52,1.4,3.07,2.1,4.59A67.12,67.12,0,0,0,207.34,136c2.62,3.28,5.34,6.45,8.19,9.52,3.82,4.12,7.72,8.19,11.11,12.67a79.46,79.46,0,0,1,10.56,18.51,92.08,92.08,0,0,1,6.26,25.78,87.94,87.94,0,0,1-1.53,27.13,56.83,56.83,0,0,1-6.24,16,91.43,91.43,0,0,1-14.57,18.65c-3.81,3.89-7.84,7.52-11.88,11.17-4.92,4.43-9.89,8.8-14.69,13.36a77.35,77.35,0,0,0-6.22,6.06c-.64.76-.89.67-1.15-.32-1-3.6-1.63-7.26-2.39-10.91-.9-4.39-1.61-8.81-2.18-13.24-.7-5.47-1.18-11-1.58-16.46-.45-6.29-.42-12.59-.37-18.89.05-5.83.42-11.65,1-17.47a231.39,231.39,0,0,1,3.78-25.26c1.07-5.18,2.16-10.37,3.73-15.44A2.28,2.28,0,0,0,189.27,175.47Z"/><path class="cls-2" d="M68.19,217.78c2.75,1,5.52,2,8.25,3.05a121.29,121.29,0,0,1,14.38,6.73c3.9,2.14,7.66,4.48,11.33,7a111.18,111.18,0,0,1,18.53,16.26,49.81,49.81,0,0,1,7.6,9.82c1.58,2.92,2.93,6,4.7,8.81A83.57,83.57,0,0,0,142.67,282,96.31,96.31,0,0,0,156,293.62a47.43,47.43,0,0,0,8.61,4.8,18.47,18.47,0,0,1,1.72.87c.29.17.81.24.76.65s-.53.56-.9.67c-1.41.43-2.81.87-4.23,1.25A130,130,0,0,1,144.11,305c-7.16.82-14.33,1.19-21.53,1.38-4.66.12-9.31,0-13.94-.34A67.11,67.11,0,0,1,78.3,296.5a72.15,72.15,0,0,1-16.73-14,81.41,81.41,0,0,1-8.76-12.06,57.67,57.67,0,0,1-6-13.49,75.56,75.56,0,0,1-2.41-12.21c-1-8.2-1.11-16.5-2.56-24.66a36,36,0,0,0-3.62-11.19,17.4,17.4,0,0,0-8.48-8c-.42-.18-1.13-.29-1.11-.7s.78-.53,1.22-.63c4.26-1,8.56-1.76,12.88-2.38s8.95-1.19,13.45-1.46a164.26,164.26,0,0,1,19.09-.35c3.47.19,6.94.35,10.39.7a125.79,125.79,0,0,1,19.53,3.54A106.17,106.17,0,0,1,122.9,206c1.75.82,1.8.86,1.33,2.76a84.28,84.28,0,0,0-2.17,24.31,69.66,69.66,0,0,0,1.25,10.66c.09.42.41,1-.11,1.27s-.76-.32-1.07-.58a120.66,120.66,0,0,0-10.08-7.82,118.83,118.83,0,0,0-20.84-11.51,120.41,120.41,0,0,0-14.93-5.41c-2.38-.67-4.76-1.31-7.15-1.95a7,7,0,0,0-.92-.14Z"/><path class="cls-2" d="M310.93,247.6c-1.21.54-2.27,1-3.28,1.48a162.25,162.25,0,0,1-18.3,7.73,173.08,173.08,0,0,1-19.06,5.55,140.4,140.4,0,0,1-21.85,3.29,93.45,93.45,0,0,1-18-.36c-.32,0-.7,0-.86-.34s.14-.66.37-.93a104.44,104.44,0,0,0,7-8.7,71.82,71.82,0,0,0,9.22-17.64,76.09,76.09,0,0,0,3.69-18.27c.1-1,.43-1.47,1.45-1.55,4.54-.34,9.09-.41,13.64-.33A185.42,185.42,0,0,1,284.2,219c5.08.62,10.14,1.42,15.18,2.28,3.92.67,7.82,1.41,11.69,2.3,6.47,1.48,12.59.2,18.61-2.09a55.77,55.77,0,0,0,10.47-5.19c.34-.22.74-.57,1.17-.29s.18.78.16,1.19A133.07,133.07,0,0,1,330.76,262a97.64,97.64,0,0,1-6.4,12.15,81.33,81.33,0,0,1-8,10.76,70.71,70.71,0,0,1-11.81,10.73,70,70,0,0,1-22.4,10.62,115,115,0,0,1-19.28,3.66,108.61,108.61,0,0,1-20.48.2,113.83,113.83,0,0,1-15.81-2.39,123.8,123.8,0,0,1-16.39-5.09c-4.29-1.64-8.39-3.68-12.48-5.73-.22-.11-.42-.28-.64-.4-.76-.41-.71-.86-.12-1.41,1.52-1.41,3-2.86,4.54-4.26,3.33-3,6.68-6.05,10-9.08,3.11-2.81,6.22-5.61,9.31-8.43.93-.84,1.8-1.74,2.69-2.63a2,2,0,0,1,1.75-.57,96.45,96.45,0,0,0,15.11.39,118.45,118.45,0,0,0,16.3-1.91,134.82,134.82,0,0,0,16.06-3.94,184.28,184.28,0,0,0,22.37-8.54c5.18-2.35,10.15-5.14,15.18-7.78A1.07,1.07,0,0,0,310.93,247.6Z"/></svg>